<mxfile host="app.diagrams.net" modified="2020-12-13T16:24:55.510Z" agent="5.0 (Macintosh; Intel Mac OS X 11_0_1) AppleWebKit/537.36 (KHTML, like Gecko) Chrome/87.0.4280.88 Safari/537.36" etag="DrTEzEpJnYQx9WEe7ws8" version="14.0.1" type="github">
  <diagram name="Page-1" id="9f46799a-70d6-7492-0946-bef42562c5a5">
    <mxGraphModel dx="1283" dy="769" grid="1" gridSize="10" guides="1" tooltips="1" connect="1" arrows="1" fold="1" page="1" pageScale="1" pageWidth="1100" pageHeight="850" background="#ffffff" math="0" shadow="0">
      <root>
        <mxCell id="0" />
        <mxCell id="1" parent="0" />
        <mxCell id="g9u5fgvemiIYDSWo6HSX-2" style="edgeStyle=orthogonalEdgeStyle;rounded=0;orthogonalLoop=1;jettySize=auto;html=1;exitX=0.5;exitY=1;exitDx=0;exitDy=0;" edge="1" parent="1" source="g9u5fgvemiIYDSWo6HSX-1" target="g9u5fgvemiIYDSWo6HSX-3">
          <mxGeometry relative="1" as="geometry">
            <mxPoint x="325" y="240" as="targetPoint" />
          </mxGeometry>
        </mxCell>
        <mxCell id="g9u5fgvemiIYDSWo6HSX-1" value="" style="rhombus;" vertex="1" parent="1">
          <mxGeometry x="195" y="70" width="250" height="100" as="geometry" />
        </mxCell>
        <mxCell id="g9u5fgvemiIYDSWo6HSX-5" style="edgeStyle=orthogonalEdgeStyle;rounded=0;orthogonalLoop=1;jettySize=auto;html=1;entryX=0.5;entryY=0;entryDx=0;entryDy=0;" edge="1" parent="1" source="g9u5fgvemiIYDSWo6HSX-3" target="g9u5fgvemiIYDSWo6HSX-4">
          <mxGeometry relative="1" as="geometry" />
        </mxCell>
        <mxCell id="g9u5fgvemiIYDSWo6HSX-3" value="" style="rhombus;" vertex="1" parent="1">
          <mxGeometry x="195" y="225" width="250" height="75" as="geometry" />
        </mxCell>
        <mxCell id="g9u5fgvemiIYDSWo6HSX-4" value="" style="rhombus;" vertex="1" parent="1">
          <mxGeometry x="200" y="360" width="240" height="110" as="geometry" />
        </mxCell>
      </root>
    </mxGraphModel>
  </diagram>
</mxfile>
